<?xml version="1.0" standalone="no"?>
<!DOCTYPE svg PUBLIC "-//W3C//DTD SVG 20010904//EN"
 "http://www.w3.org/TR/2001/REC-SVG-20010904/DTD/svg10.dtd">
<svg version="1.0" xmlns="http://www.w3.org/2000/svg"
 width="625.000000pt" height="625.000000pt" viewBox="0 0 625.000000 625.000000"
 preserveAspectRatio="xMidYMid meet">
<metadata>
Created by potrace 1.14, written by Peter Selinger 2001-2017
</metadata>
<g transform="translate(0.000000,625.000000) scale(0.100000,-0.100000)"
fill="#000000" stroke="none">
<path d="M2969 6246 c-2 -2 -44 -6 -94 -9 -105 -8 -227 -22 -305 -38 -532
-104 -961 -298 -1380 -623 -135 -105 -392 -361 -504 -501 -380 -478 -605
-1034 -672 -1655 -10 -92 -12 -452 -3 -535 4 -39 10 -98 13 -132 34 -329 150
-709 316 -1038 450 -889 1286 -1503 2270 -1669 190 -32 297 -41 515 -41 372 0
696 54 1040 175 904 318 1616 1043 1925 1959 52 156 113 417 126 543 3 35 8
65 9 68 18 31 26 508 12 650 -58 569 -245 1078 -561 1525 -323 457 -790 839
-1294 1060 -262 115 -628 215 -877 240 -38 4 -79 9 -90 11 -26 6 -441 15 -446
10z"/>
</g>
</svg>
